<svg width="39" height="28" viewBox="0 0 39 28" fill="none" xmlns="http://www.w3.org/2000/svg">
<path d="M37.125 11C37.4897 11 37.8394 10.8551 38.0973 10.5973C38.3551 10.3394 38.5 9.98967 38.5 9.625V2.75C38.5 2.02065 38.2103 1.32118 37.6945 0.805456C37.1788 0.289731 36.4793 0 35.75 0H2.75C2.02065 0 1.32118 0.289731 0.805456 0.805456C0.289731 1.32118 0 2.02065 0 2.75V9.625C0 9.98967 0.144866 10.3394 0.402728 10.5973C0.660591 10.8551 1.01033 11 1.375 11C2.10435 11 2.80382 11.2897 3.31954 11.8055C3.83527 12.3212 4.125 13.0207 4.125 13.75C4.125 14.4793 3.83527 15.1788 3.31954 15.6945C2.80382 16.2103 2.10435 16.5 1.375 16.5C1.01033 16.5 0.660591 16.6449 0.402728 16.9027C0.144866 17.1606 0 17.5103 0 17.875V24.75C0 25.4793 0.289731 26.1788 0.805456 26.6945C1.32118 27.2103 2.02065 27.5 2.75 27.5H35.75C36.4793 27.5 37.1788 27.2103 37.6945 26.6945C38.2103 26.1788 38.5 25.4793 38.5 24.75V17.875C38.5 17.5103 38.3551 17.1606 38.0973 16.9027C37.8394 16.6449 37.4897 16.5 37.125 16.5C36.3957 16.5 35.6962 16.2103 35.1805 15.6945C34.6647 15.1788 34.375 14.4793 34.375 13.75C34.375 13.0207 34.6647 12.3212 35.1805 11.8055C35.6962 11.2897 36.3957 11 37.125 11V11ZM35.75 19.0713V24.75H26.125V20.625H23.375V24.75H2.75V19.0713C3.927 18.7636 4.96879 18.0745 5.71233 17.1116C6.45588 16.1487 6.85921 14.9665 6.85921 13.75C6.85921 12.5335 6.45588 11.3513 5.71233 10.3884C4.96879 9.42555 3.927 8.73638 2.75 8.42875V2.75H23.375V6.875H26.125V2.75H35.75V8.42875C34.573 8.73638 33.5312 9.42555 32.7877 10.3884C32.0441 11.3513 31.6408 12.5335 31.6408 13.75C31.6408 14.9665 32.0441 16.1487 32.7877 17.1116C33.5312 18.0745 34.573 18.7636 35.75 19.0713V19.0713Z" fill="#2EBCCE"/>
</svg>
