<svg width="37" height="37" viewBox="0 0 37 37" fill="none" xmlns="http://www.w3.org/2000/svg">
<path d="M14.9041 28.7629V16.428H13.4402C12.3919 16.9869 11.3786 17.6093 10.4062 18.2919V19.8991C11.2734 19.3047 12.6471 18.4653 13.3154 18.1023H13.3431V28.7629H14.9041V28.7629ZM17.6513 25.7451C17.76 27.2251 19.0249 28.9964 21.5895 28.9964C24.4986 28.9964 26.2145 26.5313 26.2145 22.3573C26.2145 17.8849 24.4084 16.1875 21.6982 16.1875C19.5568 16.1875 17.5426 17.7415 17.5426 20.3708C17.5426 23.0533 19.4481 24.4639 21.4184 24.4639C23.1435 24.4639 24.2628 23.5944 24.6166 22.6371H24.679C24.6697 25.6803 23.6129 27.6413 21.6612 27.6413C20.1257 27.6413 19.3302 26.6007 19.2331 25.7451H17.6513V25.7451ZM24.4801 20.387C24.4801 21.9965 23.1874 23.1158 21.7421 23.1158C20.3523 23.1158 19.0966 22.2301 19.0966 20.3407C19.0966 18.4376 20.4425 17.5426 21.7976 17.5426C23.2614 17.5426 24.4801 18.463 24.4801 20.387Z" fill="#797373"/>
<path fill-rule="evenodd" clip-rule="evenodd" d="M32.375 4.625H4.625C4.01169 4.625 3.42349 4.86864 2.98982 5.30232C2.55614 5.73599 2.3125 6.32419 2.3125 6.9375V32.375C2.3125 32.9883 2.55614 33.5765 2.98982 34.0102C3.42349 34.4439 4.01169 34.6875 4.625 34.6875H32.375C32.9883 34.6875 33.5765 34.4439 34.0102 34.0102C34.4439 33.5765 34.6875 32.9883 34.6875 32.375V6.9375C34.6875 6.32419 34.4439 5.73599 34.0102 5.30232C33.5765 4.86864 32.9883 4.625 32.375 4.625V4.625ZM4.625 2.3125C3.39837 2.3125 2.22199 2.79978 1.35463 3.66713C0.487275 4.53449 0 5.71087 0 6.9375L0 32.375C0 33.6016 0.487275 34.778 1.35463 35.6454C2.22199 36.5127 3.39837 37 4.625 37H32.375C33.6016 37 34.778 36.5127 35.6454 35.6454C36.5127 34.778 37 33.6016 37 32.375V6.9375C37 5.71087 36.5127 4.53449 35.6454 3.66713C34.778 2.79978 33.6016 2.3125 32.375 2.3125H4.625Z" fill="#797373"/>
<path fill-rule="evenodd" clip-rule="evenodd" d="M8.09375 0C8.40041 0 8.6945 0.121819 8.91134 0.338658C9.12818 0.555497 9.25 0.849593 9.25 1.15625V2.3125C9.25 2.61916 9.12818 2.91325 8.91134 3.13009C8.6945 3.34693 8.40041 3.46875 8.09375 3.46875C7.78709 3.46875 7.493 3.34693 7.27616 3.13009C7.05932 2.91325 6.9375 2.61916 6.9375 2.3125V1.15625C6.9375 0.849593 7.05932 0.555497 7.27616 0.338658C7.493 0.121819 7.78709 0 8.09375 0V0ZM28.9062 0C29.2129 0 29.507 0.121819 29.7238 0.338658C29.9407 0.555497 30.0625 0.849593 30.0625 1.15625V2.3125C30.0625 2.61916 29.9407 2.91325 29.7238 3.13009C29.507 3.34693 29.2129 3.46875 28.9062 3.46875C28.5996 3.46875 28.3055 3.34693 28.0887 3.13009C27.8718 2.91325 27.75 2.61916 27.75 2.3125V1.15625C27.75 0.849593 27.8718 0.555497 28.0887 0.338658C28.3055 0.121819 28.5996 0 28.9062 0V0Z" fill="#797373"/>
<path d="M5.78125 9.25C5.78125 8.94334 5.90307 8.64925 6.11991 8.43241C6.33675 8.21557 6.63084 8.09375 6.9375 8.09375H30.0625C30.3692 8.09375 30.6633 8.21557 30.8801 8.43241C31.0969 8.64925 31.2188 8.94334 31.2188 9.25V11.5625C31.2188 11.8692 31.0969 12.1633 30.8801 12.3801C30.6633 12.5969 30.3692 12.7188 30.0625 12.7188H6.9375C6.63084 12.7188 6.33675 12.5969 6.11991 12.3801C5.90307 12.1633 5.78125 11.8692 5.78125 11.5625V9.25Z" fill="#797373"/>
</svg>
