<svg width="39" height="35" viewBox="0 0 39 35" fill="none" xmlns="http://www.w3.org/2000/svg">
<path fill-rule="evenodd" clip-rule="evenodd" d="M18.7926 0.716106C19.0196 0.942529 19.1997 1.21151 19.3226 1.50764C19.4455 1.80377 19.5087 2.12124 19.5087 2.44186C19.5087 2.76247 19.4455 3.07994 19.3226 3.37607C19.1997 3.6722 19.0196 3.94118 18.7926 4.16761L5.88848 17.0669L18.7926 29.9661C19.0192 30.1927 19.199 30.4618 19.3217 30.7579C19.4443 31.054 19.5074 31.3714 19.5074 31.6919C19.5074 32.0124 19.4443 32.3297 19.3217 32.6258C19.199 32.9219 19.0192 33.191 18.7926 33.4176C18.566 33.6442 18.2969 33.824 18.0008 33.9467C17.7047 34.0693 17.3874 34.1324 17.0669 34.1324C16.7464 34.1324 16.429 34.0693 16.1329 33.9467C15.8368 33.824 15.5677 33.6442 15.3411 33.4176L0.716107 18.7926C0.489111 18.5662 0.309014 18.2972 0.186133 18.0011C0.0632513 17.7049 0 17.3875 0 17.0669C0 16.7462 0.0632513 16.4288 0.186133 16.1326C0.309014 15.8365 0.489111 15.5675 0.716107 15.3411L15.3411 0.716106C15.5675 0.48911 15.8365 0.309013 16.1326 0.186132C16.4288 0.0632501 16.7462 0 17.0669 0C17.3875 0 17.7049 0.0632501 18.0011 0.186132C18.2972 0.309013 18.5662 0.48911 18.7926 0.716106V0.716106Z" fill="#BD4089"/>
<path fill-rule="evenodd" clip-rule="evenodd" d="M2.4375 17.0674C2.4375 16.4209 2.69431 15.8009 3.15143 15.3438C3.60855 14.8867 4.22853 14.6299 4.875 14.6299H36.5625C37.209 14.6299 37.829 14.8867 38.2861 15.3438C38.7432 15.8009 39 16.4209 39 17.0674C39 17.7138 38.7432 18.3338 38.2861 18.791C37.829 19.2481 37.209 19.5049 36.5625 19.5049H4.875C4.22853 19.5049 3.60855 19.2481 3.15143 18.791C2.69431 18.3338 2.4375 17.7138 2.4375 17.0674Z" fill="#BD4089"/>
</svg>
