<svg width="16" height="15" viewBox="0 0 16 15" fill="none" xmlns="http://www.w3.org/2000/svg">
<path fill-rule="evenodd" clip-rule="evenodd" d="M7.88188 13.6265C9.59972 13.6265 11.2472 12.9565 12.4619 11.764C13.6766 10.5714 14.359 8.95399 14.359 7.26747C14.359 5.58095 13.6766 3.9635 12.4619 2.77095C11.2472 1.5784 9.59972 0.908434 7.88188 0.908434C6.16405 0.908434 4.51658 1.5784 3.30189 2.77095C2.0872 3.9635 1.40479 5.58095 1.40479 7.26747C1.40479 8.95399 2.0872 10.5714 3.30189 11.764C4.51658 12.9565 6.16405 13.6265 7.88188 13.6265V13.6265ZM7.88188 14.5349C9.84512 14.5349 11.7279 13.7693 13.1162 12.4063C14.5044 11.0434 15.2843 9.19492 15.2843 7.26747C15.2843 5.34002 14.5044 3.49151 13.1162 2.12859C11.7279 0.765678 9.84512 0 7.88188 0C5.91865 0 4.03582 0.765678 2.6476 2.12859C1.25938 3.49151 0.479492 5.34002 0.479492 7.26747C0.479492 9.19492 1.25938 11.0434 2.6476 12.4063C4.03582 13.7693 5.91865 14.5349 7.88188 14.5349V14.5349Z" fill="white"/>
<path d="M8.7416 5.98438L6.62266 6.2451L6.54679 6.5903L6.96317 6.6657C7.23521 6.72929 7.28888 6.82558 7.22966 7.09176L6.54679 10.2422C6.36728 11.0571 6.64394 11.4404 7.29443 11.4404C7.79872 11.4404 8.38443 11.2115 8.64999 10.8972L8.73142 10.5193C8.54636 10.6792 8.27617 10.7428 8.09666 10.7428C7.84221 10.7428 7.74968 10.5674 7.81537 10.2586L8.7416 5.98438Z" fill="white"/>
<path d="M7.88135 4.99558C8.39238 4.99558 8.80665 4.58886 8.80665 4.08714C8.80665 3.58543 8.39238 3.17871 7.88135 3.17871C7.37033 3.17871 6.95605 3.58543 6.95605 4.08714C6.95605 4.58886 7.37033 4.99558 7.88135 4.99558Z" fill="white"/>
</svg>
