<svg width="28" height="28" viewBox="0 0 28 28" fill="none" xmlns="http://www.w3.org/2000/svg">
<path d="M5.25065 14.0001C6.86148 14.0001 8.16732 12.6942 8.16732 11.0834C8.16732 9.47258 6.86148 8.16675 5.25065 8.16675C3.63982 8.16675 2.33398 9.47258 2.33398 11.0834C2.33398 12.6942 3.63982 14.0001 5.25065 14.0001Z" fill="#949494"/>
<path d="M10.5007 9.33333C12.1115 9.33333 13.4173 8.0275 13.4173 6.41667C13.4173 4.80584 12.1115 3.5 10.5007 3.5C8.88982 3.5 7.58398 4.80584 7.58398 6.41667C7.58398 8.0275 8.88982 9.33333 10.5007 9.33333Z" fill="#949494"/>
<path d="M17.5007 9.33333C19.1115 9.33333 20.4173 8.0275 20.4173 6.41667C20.4173 4.80584 19.1115 3.5 17.5007 3.5C15.8898 3.5 14.584 4.80584 14.584 6.41667C14.584 8.0275 15.8898 9.33333 17.5007 9.33333Z" fill="#949494"/>
<path d="M22.7507 14.0001C24.3615 14.0001 25.6673 12.6942 25.6673 11.0834C25.6673 9.47258 24.3615 8.16675 22.7507 8.16675C21.1398 8.16675 19.834 9.47258 19.834 11.0834C19.834 12.6942 21.1398 14.0001 22.7507 14.0001Z" fill="#949494"/>
<path d="M20.2311 17.3367C19.2161 16.1467 18.3644 15.1317 17.3377 13.9417C16.8011 13.3117 16.1127 12.6817 15.2961 12.4017C15.1677 12.355 15.0394 12.32 14.9111 12.2967C14.6194 12.25 14.3044 12.25 14.0011 12.25C13.6977 12.25 13.3827 12.25 13.0794 12.3083C12.9511 12.3317 12.8227 12.3667 12.6944 12.4133C11.8777 12.6933 11.2011 13.3233 10.6527 13.9533C9.63773 15.1433 8.78606 16.1583 7.7594 17.3483C6.23106 18.8767 4.35273 20.5683 4.70273 22.9367C5.04106 24.1267 5.89273 25.305 7.42106 25.6433C8.27273 25.8183 10.9911 25.13 13.8844 25.13H14.0944C16.9877 25.13 19.7061 25.8067 20.5577 25.6433C22.0861 25.305 22.9377 24.115 23.2761 22.9367C23.6377 20.5567 21.7594 18.865 20.2311 17.3367V17.3367Z" fill="#949494"/>
</svg>
