<svg width="16" height="16" viewBox="0 0 16 16" fill="none" xmlns="http://www.w3.org/2000/svg">
<path d="M6.40727 12.3652V7.06238H5.77797C5.32726 7.30263 4.89167 7.57023 4.47363 7.86367V8.55461C4.84644 8.29911 5.43697 7.93823 5.72428 7.78215H5.73621V12.3652H6.40727V12.3652ZM7.58833 11.0678C7.63506 11.7041 8.17886 12.4656 9.28139 12.4656C10.532 12.4656 11.2697 11.4059 11.2697 9.6114C11.2697 7.6887 10.4933 6.95898 9.32811 6.95898C8.40752 6.95898 7.54161 7.62706 7.54161 8.75742C7.54161 9.91064 8.36079 10.5171 9.20782 10.5171C9.94946 10.5171 10.4306 10.1433 10.5827 9.73169H10.6096C10.6056 11.04 10.1513 11.8831 9.3122 11.8831C8.65208 11.8831 8.31009 11.4357 8.26834 11.0678H7.58833V11.0678ZM10.5241 8.76438C10.5241 9.45631 9.96835 9.93748 9.347 9.93748C8.74951 9.93748 8.20968 9.55672 8.20968 8.74449C8.20968 7.9263 8.78828 7.54156 9.37086 7.54156C10.0002 7.54156 10.5241 7.93724 10.5241 8.76438Z" fill="white"/>
<path fill-rule="evenodd" clip-rule="evenodd" d="M13.9182 1.9883H1.98832C1.72465 1.9883 1.47178 2.09304 1.28534 2.27948C1.0989 2.46592 0.994159 2.71879 0.994159 2.98246V13.9182C0.994159 14.1819 1.0989 14.4347 1.28534 14.6212C1.47178 14.8076 1.72465 14.9124 1.98832 14.9124H13.9182C14.1819 14.9124 14.4348 14.8076 14.6212 14.6212C14.8076 14.4347 14.9124 14.1819 14.9124 13.9182V2.98246C14.9124 2.71879 14.8076 2.46592 14.6212 2.27948C14.4348 2.09304 14.1819 1.9883 13.9182 1.9883V1.9883ZM1.98832 0.994141C1.46098 0.994141 0.955247 1.20362 0.582365 1.57651C0.209483 1.94939 0 2.45512 0 2.98246L0 13.9182C0 14.4455 0.209483 14.9513 0.582365 15.3242C0.955247 15.697 1.46098 15.9065 1.98832 15.9065H13.9182C14.4456 15.9065 14.9513 15.697 15.3242 15.3242C15.6971 14.9513 15.9065 14.4455 15.9065 13.9182V2.98246C15.9065 2.45512 15.6971 1.94939 15.3242 1.57651C14.9513 1.20362 14.4456 0.994141 13.9182 0.994141H1.98832Z" fill="white"/>
<path fill-rule="evenodd" clip-rule="evenodd" d="M3.4795 0C3.61133 0 3.73777 0.0523707 3.83099 0.145591C3.92421 0.238812 3.97658 0.365246 3.97658 0.497079V0.994159C3.97658 1.12599 3.92421 1.25243 3.83099 1.34565C3.73777 1.43887 3.61133 1.49124 3.4795 1.49124C3.34767 1.49124 3.22123 1.43887 3.12801 1.34565C3.03479 1.25243 2.98242 1.12599 2.98242 0.994159V0.497079C2.98242 0.365246 3.03479 0.238812 3.12801 0.145591C3.22123 0.0523707 3.34767 0 3.4795 0V0ZM12.4269 0C12.5588 0 12.6852 0.0523707 12.7784 0.145591C12.8716 0.238812 12.924 0.365246 12.924 0.497079V0.994159C12.924 1.12599 12.8716 1.25243 12.7784 1.34565C12.6852 1.43887 12.5588 1.49124 12.4269 1.49124C12.2951 1.49124 12.1687 1.43887 12.0754 1.34565C11.9822 1.25243 11.9299 1.12599 11.9299 0.994159V0.497079C11.9299 0.365246 11.9822 0.238812 12.0754 0.145591C12.1687 0.0523707 12.2951 0 12.4269 0V0Z" fill="white"/>
<path d="M2.48535 3.97657C2.48535 3.84474 2.53772 3.7183 2.63094 3.62508C2.72416 3.53186 2.8506 3.47949 2.98243 3.47949H12.924C13.0559 3.47949 13.1823 3.53186 13.2755 3.62508C13.3687 3.7183 13.4211 3.84474 13.4211 3.97657V4.97073C13.4211 5.10256 13.3687 5.229 13.2755 5.32222C13.1823 5.41544 13.0559 5.46781 12.924 5.46781H2.98243C2.8506 5.46781 2.72416 5.41544 2.63094 5.32222C2.53772 5.229 2.48535 5.10256 2.48535 4.97073V3.97657Z" fill="white"/>
</svg>
