<svg width="48" height="48" viewBox="0 0 48 48" fill="none" xmlns="http://www.w3.org/2000/svg">
<path d="M14.25 24C17.9779 24 21 20.9779 21 17.25C21 13.5221 17.9779 10.5 14.25 10.5C10.5221 10.5 7.5 13.5221 7.5 17.25C7.5 20.9779 10.5221 24 14.25 24Z" fill="#00889A"/>
<path d="M21.9375 27.75C19.2975 26.4094 16.3837 25.875 14.25 25.875C10.0706 25.875 1.5 28.4381 1.5 33.5625V37.5H15.5625V35.9934C15.5625 34.2122 16.3125 32.4262 17.625 30.9375C18.6722 29.7487 20.1384 28.6453 21.9375 27.75Z" fill="#00889A"/>
<path d="M31.875 27C26.9934 27 17.25 30.015 17.25 36V40.5H46.5V36C46.5 30.015 36.7566 27 31.875 27Z" fill="#00889A"/>
<path d="M31.875 24C36.4313 24 40.125 20.3063 40.125 15.75C40.125 11.1937 36.4313 7.5 31.875 7.5C27.3187 7.5 23.625 11.1937 23.625 15.75C23.625 20.3063 27.3187 24 31.875 24Z" fill="#00889A"/>
</svg>
