<svg width="24" height="24" viewBox="0 0 24 24" fill="none" xmlns="http://www.w3.org/2000/svg">
<path d="M8 8C5.79167 8 3.90625 8.78125 2.34375 10.3438C0.78125 11.9062 0 13.7917 0 16C0 18.2083 0.78125 20.0938 2.34375 21.6562C3.90625 23.2188 5.79167 24 8 24C10.2083 24 12.0938 23.2188 13.6562 21.6562C15.2188 20.0938 16 18.2083 16 16C16 14.5417 15.6302 13.1875 14.8906 11.9375L20 6.82812V13H24V0H11V4.01562H17.1562L12.0625 9.10938C10.8125 8.36979 9.45833 8 8 8ZM8 12C9.10417 12 10.0469 12.3906 10.8281 13.1719C11.6094 13.9531 12 14.8958 12 16C12 17.1042 11.6094 18.0469 10.8281 18.8281C10.0469 19.6094 9.10417 20 8 20C6.89583 20 5.95312 19.6094 5.17188 18.8281C4.39062 18.0469 4 17.1042 4 16C4 14.8958 4.39062 13.9531 5.17188 13.1719C5.95312 12.3906 6.89583 12 8 12Z" fill="#797373"/>
</svg>
