<svg width="16" height="26" viewBox="0 0 16 26" fill="none" xmlns="http://www.w3.org/2000/svg">
<path d="M10 26V22H16V18H10V15.75C11.75 15.3021 13.1875 14.3594 14.3125 12.9219C15.4375 11.4844 16 9.84375 16 8C16 5.79167 15.2188 3.90625 13.6562 2.34375C12.0938 0.78125 10.2083 0 8 0C5.79167 0 3.90625 0.78125 2.34375 2.34375C0.78125 3.90625 0 5.79167 0 8C0 9.84375 0.5625 11.4844 1.6875 12.9219C2.8125 14.3594 4.25 15.3021 6 15.75V18H0V22H6V26H10ZM8 4C9.10417 4 10.0469 4.39062 10.8281 5.17188C11.6094 5.95312 12 6.89583 12 8C12 9.10417 11.6094 10.0469 10.8281 10.8281C10.0469 11.6094 9.10417 12 8 12C6.89583 12 5.95312 11.6094 5.17188 10.8281C4.39062 10.0469 4 9.10417 4 8C4 6.89583 4.39062 5.95312 5.17188 5.17188C5.95312 4.39062 6.89583 4 8 4Z" fill="#797373"/>
</svg>
