<svg width="40" height="40" viewBox="0 0 40 40" fill="none" xmlns="http://www.w3.org/2000/svg">
<path d="M30 35V32.5H32.5V35H30Z" fill="#2EBCCE"/>
<path d="M22.5 30V27.5H25V30H22.5Z" fill="#2EBCCE"/>
<path d="M22.5 37.5H27.5V35H25V32.5H22.5V37.5Z" fill="#2EBCCE"/>
<path d="M32.5 32.5V27.5H35V32.5H32.5Z" fill="#2EBCCE"/>
<path d="M35 32.5H37.5V37.5H32.5V35H35V32.5Z" fill="#2EBCCE"/>
<path d="M32.5 25V22.5H37.5V27.5H35V25H32.5Z" fill="#2EBCCE"/>
<path d="M30 25H27.5V30H25V32.5H30V25Z" fill="#2EBCCE"/>
<path d="M22.5 25V22.5H27.5V25H22.5Z" fill="#2EBCCE"/>
<path d="M7.5 27.5H12.5V32.5H7.5V27.5Z" fill="#2EBCCE"/>
<path d="M17.5 37.5H2.5V22.5H17.5V37.5ZM5 35H15V25H5V35Z" fill="#2EBCCE"/>
<path d="M27.5 7.5H32.5V12.5H27.5V7.5Z" fill="#2EBCCE"/>
<path d="M37.5 17.5H22.5V2.5H37.5V17.5ZM25 15H35V5H25V15Z" fill="#2EBCCE"/>
<path d="M7.5 7.5H12.5V12.5H7.5V7.5Z" fill="#2EBCCE"/>
<path d="M17.5 17.5H2.5V2.5H17.5V17.5ZM5 15H15V5H5V15Z" fill="#2EBCCE"/>
</svg>
